
<svg xmlns="http://www.w3.org/2000/svg"
     xmlns:xlink="http://www.w3.org/1999/xlink" version="1.1" width="622"
     height="401">
    <defs>
        <linearGradient x1="0%" y1="0%" x2="0%" y2="100%"
                        id="mx-gradient-3cb879-1-3cb879-1-s-0">
            <stop offset="0%" style="stop-color:#3cb879"/>
            <stop offset="100%" style="stop-color:#3cb879"/>
        </linearGradient>
    </defs>
    <g transform=" scale(0.91) translate(-186.234375,-139.59375)">
        <rect x="192" y="168" width="144" height="372"
              fill="url(#mx-gradient-3cb879-1-3cb879-1-s-0)" stroke="#000000"
              stroke-width="1.2" pointer-events="none"/>
        <rect x="204" y="144" width="140.4" height="15.6" fill-opacity="0"
              fill="#dae2f2" stroke="none" pointer-events="none"/>
        <g fill="#000000" font-family="Arial,Helvetica" font-weight="bold"
           text-anchor="middle" font-size="14.399999999999999px">
            <text x="274.2" y="156.6">
                ATmega168PB-Xplained
            </text>
        </g>
        <rect x="358.8" y="514.8" width="2.4" height="2.4" fill="#000000"
              stroke="none" pointer-events="none"/>
        <path d="M 337.2 516 L 358.8 516" fill="#000000" stroke="#000000"
              stroke-width="2.4" stroke-linecap="square" stroke-miterlimit="10"
              pointer-events="none"/>
        <g fill="#000000" font-family="Arial,Helvetica" font-weight="bold"
           text-anchor="end" font-size="14.399999999999999px">
            <text x="332.6" y="520.3">
                GND
            </text>
        </g>
        <rect x="358.8" y="394.8" width="2.4" height="2.4" fill="#000000"
              stroke="none" pointer-events="none"/>
        <path d="M 337.2 396 L 358.8 396" fill="#000000" stroke="#000000"
              stroke-width="2.4" stroke-linecap="square" stroke-miterlimit="10"
              pointer-events="none"/>
        <g fill="#000000" font-family="Arial,Helvetica" font-weight="bold"
           text-anchor="end" font-size="14.399999999999999px">
            <text x="332.6" y="400.3">
                PD5 (OC0A)
            </text>
        </g>
        <rect x="358.8" y="310.8" width="2.4" height="2.4" fill="#000000"
              stroke="none" pointer-events="none"/>
        <path d="M 337.2 312 L 358.8 312" fill="#000000" stroke="#000000"
              stroke-width="2.4" stroke-linecap="square" stroke-miterlimit="10"
              pointer-events="none"/>
        <g fill="#000000" font-family="Arial,Helvetica" font-weight="bold"
           text-anchor="end" font-size="14.399999999999999px">
            <text x="332.6" y="316.3">
                PC0 (ADC0)
            </text>
        </g>
        <rect x="358.8" y="190.8" width="2.4" height="2.4" fill="#000000"
              stroke="none" pointer-events="none"/>
        <path d="M 337.2 192 L 358.8 192" fill="#000000" stroke="#000000"
              stroke-width="2.4" stroke-linecap="square" stroke-miterlimit="10"
              pointer-events="none"/>
        <g fill="#000000" font-family="Arial,Helvetica" font-weight="bold"
           text-anchor="end" font-size="14.399999999999999px">
            <text x="332.6" y="196.3">
                Vcc
            </text>
        </g>
        <rect x="382.8" y="526.8" width="2.4" height="2.4" fill="#000000"
              stroke="none" pointer-events="none"/>
        <path d="M 370.8 553.2 C 397.22 553.2 397.22 553.2 397.22 553.2"
              fill="none" stroke="#000000" stroke-width="2.4"
              stroke-linecap="round" stroke-miterlimit="10"
              pointer-events="none"/>
        <path d="M 375.6 560.4 C 387.08 560.4 392.4 560.4 392.4 560.4"
              fill="none" stroke="#000000" stroke-width="2.4"
              stroke-linecap="round" stroke-miterlimit="10"
              pointer-events="none"/>
        <path d="M 380.4 567.6 C 384.14 567.6 387.6 567.6 387.6 567.6"
              fill="none" stroke="#000000" stroke-width="2.4"
              stroke-linecap="round" stroke-miterlimit="10"
              pointer-events="none"/>
        <path d="M 384 529.2 L 384 550.8" fill="#000000" stroke="#000000"
              stroke-width="2.4" stroke-linecap="square" stroke-miterlimit="10"
              pointer-events="none"/>
        <path d="M 360 516 L 384 516 L 384 528" fill="none" stroke="#000000"
              stroke-width="2.4" stroke-miterlimit="10" pointer-events="none"/>
        <rect x="442.8" y="274.8" width="2.4" height="2.4" fill="#000000"
              stroke="none" transform="rotate(180,456,312)"
              pointer-events="none"/>
        <rect x="442.8" y="346.8" width="2.4" height="2.4" fill="#000000"
              stroke="none" transform="rotate(180,456,312)"
              pointer-events="none"/>
        <rect x="478.8" y="310.8" width="2.4" height="2.4" fill="#000000"
              stroke="none" transform="rotate(180,456,312)"
              pointer-events="none"/>
        <path d="M 444 290.4 L 452.4 294 L 444 297.6" fill="none"
              stroke="#000000" stroke-width="2.4" stroke-linejoin="round"
              stroke-linecap="round" stroke-miterlimit="10"
              transform="rotate(180,456,312)" pointer-events="none"/>
        <path d="M 444 297.6 L 435.6 301.2 L 444 304.8" fill="none"
              stroke="#000000" stroke-width="2.4" stroke-linejoin="round"
              stroke-linecap="round" stroke-miterlimit="10"
              transform="rotate(180,456,312)" pointer-events="none"/>
        <path d="M 444 304.8 L 452.4 308.4 L 444 312" fill="none"
              stroke="#000000" stroke-width="2.4" stroke-linejoin="round"
              stroke-linecap="round" stroke-miterlimit="10"
              transform="rotate(180,456,312)" pointer-events="none"/>
        <path d="M 444 312 L 435.6 315.6 L 444 319.2" fill="none"
              stroke="#000000" stroke-width="2.4" stroke-linejoin="round"
              stroke-linecap="round" stroke-miterlimit="10"
              transform="rotate(180,456,312)" pointer-events="none"/>
        <path d="M 444 319.2 L 452.4 322.8 L 444 326.4" fill="none"
              stroke="#000000" stroke-width="2.4" stroke-linejoin="round"
              stroke-linecap="round" stroke-miterlimit="10"
              transform="rotate(180,456,312)" pointer-events="none"/>
        <path d="M 444 326.4 L 435.6 330 L 444 333.6" fill="none"
              stroke="#000000" stroke-width="2.4" stroke-linejoin="round"
              stroke-linecap="round" stroke-miterlimit="10"
              transform="rotate(180,456,312)" pointer-events="none"/>
        <path d="M 444 277.2 L 444 289.2" fill="#000000" stroke="#000000"
              stroke-width="2.4" stroke-linecap="square" stroke-miterlimit="10"
              transform="rotate(180,456,312)" pointer-events="none"/>
        <path d="M 444 334.8 L 444 346.8" fill="#000000" stroke="#000000"
              stroke-width="2.4" stroke-linecap="square" stroke-miterlimit="10"
              transform="rotate(180,456,312)" pointer-events="none"/>
        <path d="M 462 312 L 478.8 312" fill="#000000" stroke="#000000"
              stroke-width="2.4" stroke-linecap="square" stroke-miterlimit="10"
              transform="rotate(180,456,312)" pointer-events="none"/>
        <path d="M 464.13 315.22 C 463.93 315.16 461.34 314.43 458.38 313.58 C 455.43 312.74 453.01 312.03 453.01 312.01 C 453 312 455.43 311.31 458.4 310.5 C 461.37 309.69 463.96 308.97 464.16 308.92 L 464.53 308.82 L 464.51 312.07 L 464.49 315.33 L 464.13 315.22 Z"
              fill="#000000" stroke="#000000" stroke-width="1.08"
              stroke-linejoin="round" stroke-linecap="square"
              stroke-miterlimit="10" transform="rotate(180,456,312)"
              pointer-events="none"/>
        <rect x="480" y="288" width="19.2" height="16.8" fill-opacity="0"
              fill="#dae2f2" stroke="none" pointer-events="none"/>
        <g fill="#000000" font-family="Arial,Helvetica" font-weight="bold"
           text-anchor="middle" font-size="14.399999999999999px">
            <text x="489.6" y="301.2">
                R2
            </text>
        </g>
        <rect x="480" y="312" width="24" height="16.8" fill-opacity="0"
              fill="#dae2f2" stroke="none" pointer-events="none"/>
        <g fill="#000000" font-family="Arial,Helvetica" font-weight="bold"
           text-anchor="middle" font-size="14.399999999999999px">
            <text x="492" y="325.2">
                50k
            </text>
        </g>
        <rect x="466.8" y="526.8" width="2.4" height="2.4" fill="#000000"
              stroke="none" pointer-events="none"/>
        <path d="M 454.8 553.2 C 481.22 553.2 481.22 553.2 481.22 553.2"
              fill="none" stroke="#000000" stroke-width="2.4"
              stroke-linecap="round" stroke-miterlimit="10"
              pointer-events="none"/>
        <path d="M 459.6 560.4 C 471.08 560.4 476.4 560.4 476.4 560.4"
              fill="none" stroke="#000000" stroke-width="2.4"
              stroke-linecap="round" stroke-miterlimit="10"
              pointer-events="none"/>
        <path d="M 464.4 567.6 C 468.14 567.6 471.6 567.6 471.6 567.6"
              fill="none" stroke="#000000" stroke-width="2.4"
              stroke-linecap="round" stroke-miterlimit="10"
              pointer-events="none"/>
        <path d="M 468 529.2 L 468 550.8" fill="#000000" stroke="#000000"
              stroke-width="2.4" stroke-linecap="square" stroke-miterlimit="10"
              pointer-events="none"/>
        <path d="M 468 528 L 468 348" fill="none" stroke="#000000"
              stroke-width="2.4" stroke-miterlimit="10" pointer-events="none"/>
        <path d="M 360 192 L 468 192 L 468 276" fill="none" stroke="#000000"
              stroke-width="2.4" stroke-miterlimit="10" pointer-events="none"/>
        <path d="M 360 312 L 432 312" fill="none" stroke="#000000"
              stroke-width="2.4" stroke-miterlimit="10" pointer-events="none"/>
        <rect x="670.8" y="358.8" width="2.4" height="2.4" fill="#000000"
              stroke="none" pointer-events="none"/>
        <rect x="670.8" y="430.8" width="2.4" height="2.4" fill="#000000"
              stroke="none" pointer-events="none"/>
        <rect x="622.8" y="394.8" width="2.4" height="2.4" fill="#000000"
              stroke="none" pointer-events="none"/>
        <ellipse cx="660" cy="396" rx="29.776359318" ry="29.776359318"
                 fill="#ffffff" stroke="#000000" stroke-width="2.4"
                 pointer-events="none"/>
        <path d="M 672 361.2 L 672 377.4" fill="#000000" stroke="#000000"
              stroke-width="2.4" stroke-linecap="square" stroke-miterlimit="10"
              pointer-events="none"/>
        <path d="M 672 418.8 L 672 430.8" fill="#000000" stroke="#000000"
              stroke-width="2.4" stroke-linecap="square" stroke-miterlimit="10"
              pointer-events="none"/>
        <path d="M 672 378 L 654 378" fill="none" stroke="#000000"
              stroke-width="2.4" stroke-linejoin="round" stroke-linecap="round"
              stroke-miterlimit="10" pointer-events="none"/>
        <path d="M 672 414 L 654 414" fill="none" stroke="#000000"
              stroke-width="2.4" stroke-linejoin="round" stroke-linecap="round"
              stroke-miterlimit="10" pointer-events="none"/>
        <path d="M 662.4 396 L 672 396 L 672 418.8" fill="none" stroke="#000000"
              stroke-width="2.4" stroke-linejoin="round" stroke-linecap="round"
              stroke-miterlimit="10" pointer-events="none"/>
        <ellipse cx="672" cy="414" rx="2.4" ry="2.4" fill="none"
                 stroke="#000000" stroke-width="2.4" pointer-events="none"/>
        <path d="M 625.2 396 L 643.2 396" fill="#000000" stroke="#000000"
              stroke-width="2.4" stroke-linecap="square" stroke-miterlimit="10"
              pointer-events="none"/>
        <path d="M 644.4 378 L 644.4 414" fill="none" stroke="#000000"
              stroke-width="2.4" stroke-linecap="round" stroke-miterlimit="10"
              pointer-events="none"/>
        <path d="M 654 372 L 654 420" fill="none" stroke="#000000"
              stroke-width="2.4" stroke-linejoin="round" stroke-linecap="round"
              stroke-miterlimit="10" pointer-events="none"/>
        <path d="M 662.7 391.2 L 655.5 396 L 662.7 400.8 Z" fill="#000000"
              stroke="#000000" stroke-width="1.2" stroke-linejoin="round"
              stroke-linecap="round" stroke-miterlimit="10"
              pointer-events="none"/>
        <rect x="606" y="360" width="19.2" height="16.8" fill-opacity="0"
              fill="#dae2f2" stroke="none" pointer-events="none"/>
        <g fill="#000000" font-family="Arial,Helvetica" font-weight="bold"
           text-anchor="middle" font-size="14.399999999999999px">
            <text x="615.6" y="373.2">
                Q1
            </text>
        </g>
        <rect x="550.8" y="358.8" width="2.4" height="2.4" fill="#000000"
              stroke="none" transform="rotate(90,552,396)" pointer-events="none"/>
        <rect x="550.8" y="430.8" width="2.4" height="2.4" fill="#000000"
              stroke="none" transform="rotate(90,552,396)" pointer-events="none"/>
        <path d="M 552 361.2 L 552 373.2" fill="#000000" stroke="#000000"
              stroke-width="2.4" stroke-linecap="square" stroke-miterlimit="10"
              transform="rotate(90,552,396)" pointer-events="none"/>
        <path d="M 552 418.8 L 552 430.8" fill="#000000" stroke="#000000"
              stroke-width="2.4" stroke-linecap="square" stroke-miterlimit="10"
              transform="rotate(90,552,396)" pointer-events="none"/>
        <path d="M 543.6 374.4 C 559.67 374.19 560.4 374.4 560.4 374.4 L 560.4 417.6 L 543.6 417.6 Z"
              fill="#ffffff" stroke="#000000" stroke-width="2.4"
              stroke-linejoin="round" stroke-linecap="round"
              stroke-miterlimit="10" transform="rotate(90,552,396)"
              pointer-events="none"/>
        <rect x="516" y="360" width="19.2" height="16.8" fill-opacity="0"
              fill="#dae2f2" stroke="none" pointer-events="none"/>
        <g fill="#000000" font-family="Arial,Helvetica" font-weight="bold"
           text-anchor="middle" font-size="14.399999999999999px">
            <text x="525.6" y="373.2">
                R1
            </text>
        </g>
        <rect x="552" y="360" width="31.2" height="15.6" fill-opacity="0"
              fill="#dae2f2" stroke="none" pointer-events="none"/>
        <g fill="#000000" font-family="Arial,Helvetica" font-weight="bold"
           text-anchor="middle" font-size="14.399999999999999px">
            <text x="567.6" y="372.6">
                100R
            </text>
        </g>
        <rect x="610.8" y="430.8" width="2.4" height="2.4" fill="#000000"
              stroke="none" pointer-events="none"/>
        <rect x="610.8" y="502.8" width="2.4" height="2.4" fill="#000000"
              stroke="none" pointer-events="none"/>
        <path d="M 612 433.2 L 612 445.2" fill="#000000" stroke="#000000"
              stroke-width="2.4" stroke-linecap="square" stroke-miterlimit="10"
              pointer-events="none"/>
        <path d="M 612 490.8 L 612 502.8" fill="#000000" stroke="#000000"
              stroke-width="2.4" stroke-linecap="square" stroke-miterlimit="10"
              pointer-events="none"/>
        <path d="M 603.6 446.4 C 619.67 446.19 620.4 446.4 620.4 446.4 L 620.4 489.6 L 603.6 489.6 Z"
              fill="#ffffff" stroke="#000000" stroke-width="2.4"
              stroke-linejoin="round" stroke-linecap="round"
              stroke-miterlimit="10" pointer-events="none"/>
        <rect x="583.2" y="432" width="19.2" height="16.8" fill-opacity="0"
              fill="#dae2f2" stroke="none" pointer-events="none"/>
        <g fill="#000000" font-family="Arial,Helvetica" font-weight="bold"
           text-anchor="middle" font-size="14.399999999999999px">
            <text x="592.8" y="445.2">
                R3
            </text>
        </g>
        <rect x="578.4" y="463.2" width="24" height="16.8" fill-opacity="0"
              fill="#dae2f2" stroke="none" pointer-events="none"/>
        <g fill="#000000" font-family="Arial,Helvetica" font-weight="bold"
           text-anchor="middle" font-size="14.399999999999999px">
            <text x="590.4" y="476.4">
                10k
            </text>
        </g>
        <path d="M 588 396 L 624 396" fill="none" stroke="#000000"
              stroke-width="2.4" stroke-miterlimit="10" pointer-events="none"/>
        <path d="M 612 432 L 612 396 L 612 398.4" fill="none" stroke="#000000"
              stroke-width="2.4" stroke-miterlimit="10" pointer-events="none"/>
        <ellipse cx="612" cy="396" rx="2.4" ry="2.4" fill="#000000"
                 stroke="#000000" stroke-width="2.4" pointer-events="none"/>
        <path d="M 516 396 L 360 396" fill="none" stroke="#000000"
              stroke-width="2.4" stroke-miterlimit="10" pointer-events="none"/>
        <rect x="670.8" y="526.8" width="2.4" height="2.4" fill="#000000"
              stroke="none" pointer-events="none"/>
        <path d="M 658.8 553.2 C 685.22 553.2 685.22 553.2 685.22 553.2"
              fill="none" stroke="#000000" stroke-width="2.4"
              stroke-linecap="round" stroke-miterlimit="10"
              pointer-events="none"/>
        <path d="M 663.6 560.4 C 675.08 560.4 680.4 560.4 680.4 560.4"
              fill="none" stroke="#000000" stroke-width="2.4"
              stroke-linecap="round" stroke-miterlimit="10"
              pointer-events="none"/>
        <path d="M 668.4 567.6 C 672.14 567.6 675.6 567.6 675.6 567.6"
              fill="none" stroke="#000000" stroke-width="2.4"
              stroke-linecap="round" stroke-miterlimit="10"
              pointer-events="none"/>
        <path d="M 672 529.2 L 672 550.8" fill="#000000" stroke="#000000"
              stroke-width="2.4" stroke-linecap="square" stroke-miterlimit="10"
              pointer-events="none"/>
        <path d="M 672 432 L 672 528" fill="none" stroke="#000000"
              stroke-width="2.4" stroke-miterlimit="10" pointer-events="none"/>
        <path d="M 612 504 L 669.6 504" fill="none" stroke="#000000"
              stroke-width="2.4" stroke-miterlimit="10" pointer-events="none"/>
        <ellipse cx="672" cy="504" rx="2.4" ry="2.4" fill="#000000"
                 stroke="#000000" stroke-width="2.4" pointer-events="none"/>
        <rect x="622.8" y="250.8" width="2.4" height="2.4" fill="#000000"
              stroke="none" transform="rotate(90,672,252)" pointer-events="none"/>
        <rect x="718.8" y="250.8" width="2.4" height="2.4" fill="#000000"
              stroke="none" transform="rotate(90,672,252)" pointer-events="none"/>
        <ellipse cx="672" cy="252" rx="24" ry="24" fill="#ffffff"
                 stroke="#000000" stroke-width="2.4"
                 transform="rotate(90,672,252)" pointer-events="none"/>
        <g fill="#000000" font-family="Arial,Helvetica" text-anchor="middle"
           font-size="16.8px" transform="rotate(90,672,252)">
            <text x="671.94" y="254.4">
                M
            </text>
        </g>
        <ellipse cx="672" cy="252" rx="24" ry="24" fill="#ffffff"
                 stroke="#000000" stroke-width="2.4"
                 transform="rotate(90,672,252)" pointer-events="none"/>
        <g fill="#000000" font-family="Arial,Helvetica" text-anchor="middle"
           font-size="16.8px" transform="rotate(90,672,252)">
            <text x="671.94" y="254.4">
                M
            </text>
        </g>
        <path d="M 625.2 252 L 634.8 252" fill="#ffffff" stroke="#000000"
              stroke-width="2.4" stroke-linecap="square" stroke-miterlimit="10"
              transform="rotate(90,672,252)" pointer-events="none"/>
        <path d="M 651.6 240 C 633.6 240 636 240 636 240 L 636 240 L 636 264 L 651.6 264"
              fill="#ffffff" stroke="#000000" stroke-width="2.4"
              stroke-linejoin="round" stroke-linecap="square"
              stroke-miterlimit="10" transform="rotate(90,672,252)"
              pointer-events="none"/>
        <path d="M 709.2 252 L 718.8 252" fill="#ffffff" stroke="#000000"
              stroke-width="2.4" stroke-linecap="square" stroke-miterlimit="10"
              transform="rotate(90,672,252)" pointer-events="none"/>
        <path d="M 692.4 240 C 710.4 240 708 240 708 240 L 708 240 L 708 264 L 692.4 264"
              fill="#ffffff" stroke="#000000" stroke-width="2.4"
              stroke-linejoin="round" stroke-linecap="square"
              stroke-miterlimit="10" transform="rotate(90,672,252)"
              pointer-events="none"/>
        <ellipse cx="672" cy="252" rx="24" ry="24" fill="#ffffff"
                 stroke="#000000" stroke-width="2.4"
                 transform="rotate(90,672,252)" pointer-events="none"/>
        <g fill="#000000" font-family="Arial,Helvetica" text-anchor="middle"
           font-size="16.8px" transform="rotate(90,672,252)">
            <text x="671.94" y="254.4">
                M
            </text>
        </g>
        <path d="M 639 252 C 645 252 645 252 645 252" fill="none"
              stroke="#000000" stroke-linecap="round" stroke-miterlimit="10"
              transform="rotate(90,672,252)" pointer-events="none"/>
        <path d="M 642 249 C 642 255 642 255 642 255" fill="none"
              stroke="#000000" stroke-linecap="round" stroke-miterlimit="10"
              transform="rotate(90,672,252)" pointer-events="none"/>
        <path d="M 699.01 252 C 705.01 252 705.01 252 705.01 252" fill="none"
              stroke="#000000" stroke-linecap="round" stroke-miterlimit="10"
              transform="rotate(90,672,252)" pointer-events="none"/>
        <rect x="708" y="204" width="18" height="15.6" fill-opacity="0"
              fill="#dae2f2" stroke="none" pointer-events="none"/>
        <g fill="#000000" font-family="Arial,Helvetica" font-weight="bold"
           text-anchor="middle" font-size="14.399999999999999px">
            <text x="717" y="216.6">
                M1
            </text>
        </g>
        <path d="M 672 204 L 672 204 L 672 192 L 470.4 192" fill="none"
              stroke="#000000" stroke-width="2.4" stroke-miterlimit="10"
              pointer-events="none"/>
        <ellipse cx="468" cy="192" rx="2.4" ry="2.4" fill="#000000"
                 stroke="#000000" stroke-width="2.4" pointer-events="none"/>
        <path d="M 672 300 L 672 360" fill="none" stroke="#000000"
              stroke-width="2.4" stroke-miterlimit="10" pointer-events="none"/>
        <rect x="754.8" y="394.8" width="2.4" height="2.4" fill="#000000"
              stroke="none" pointer-events="none"/>
        <rect x="754.8" y="334.8" width="2.4" height="2.4" fill="#000000"
              stroke="none" pointer-events="none"/>
        <path d="M 768.16 342.08 C 768.16 354.08 768.16 354.08 768.16 354.08"
              fill="none" stroke="#000000" stroke-width="1.8"
              stroke-linecap="round" stroke-miterlimit="10"
              pointer-events="none"/>
        <path d="M 762.16 348.08 C 774.16 348.08 774.16 348.08 774.16 348.08"
              fill="none" stroke="#000000" stroke-width="1.8"
              stroke-linecap="round" stroke-miterlimit="10"
              pointer-events="none"/>
        <path d="M 756 375.6 L 756 394.8" fill="none" stroke="#000000"
              stroke-width="2.4" stroke-linecap="square" stroke-miterlimit="10"
              pointer-events="none"/>
        <path d="M 756 337.2 L 756 356.4" fill="none" stroke="#000000"
              stroke-width="2.4" stroke-linecap="square" stroke-miterlimit="10"
              pointer-events="none"/>
        <rect x="743.04" y="357.64" width="26.4" height="6" fill="#ffffff"
              stroke="#000000" stroke-width="2.4" pointer-events="none"/>
        <rect x="743.04" y="368.88" width="26.4" height="6" fill="#000000"
              stroke="#000000" stroke-width="2.4" pointer-events="none"/>
        <rect x="780" y="372" width="63.6" height="16.8" fill-opacity="0"
              fill="#dae2f2" stroke="none" pointer-events="none"/>
        <g fill="#000000" font-family="Arial,Helvetica" font-weight="bold"
           text-anchor="middle" font-size="14.399999999999999px">
            <text x="811.8" y="385.2">
                220u 16V
            </text>
        </g>
        <rect x="780" y="348" width="19.2" height="16.8" fill-opacity="0"
              fill="#dae2f2" stroke="none" pointer-events="none"/>
        <g fill="#000000" font-family="Arial,Helvetica" font-weight="bold"
           text-anchor="middle" font-size="14.399999999999999px">
            <text x="789.6" y="361.2">
                C1
            </text>
        </g>
        <rect x="754.8" y="526.8" width="2.4" height="2.4" fill="#000000"
              stroke="none" pointer-events="none"/>
        <path d="M 742.8 553.2 C 769.22 553.2 769.22 553.2 769.22 553.2"
              fill="none" stroke="#000000" stroke-width="2.4"
              stroke-linecap="round" stroke-miterlimit="10"
              pointer-events="none"/>
        <path d="M 747.6 560.4 C 759.08 560.4 764.4 560.4 764.4 560.4"
              fill="none" stroke="#000000" stroke-width="2.4"
              stroke-linecap="round" stroke-miterlimit="10"
              pointer-events="none"/>
        <path d="M 752.4 567.6 C 756.14 567.6 759.6 567.6 759.6 567.6"
              fill="none" stroke="#000000" stroke-width="2.4"
              stroke-linecap="round" stroke-miterlimit="10"
              pointer-events="none"/>
        <path d="M 756 529.2 L 756 550.8" fill="#000000" stroke="#000000"
              stroke-width="2.4" stroke-linecap="square" stroke-miterlimit="10"
              pointer-events="none"/>
        <path d="M 756 528 L 756 396" fill="none" stroke="#000000"
              stroke-width="2.4" stroke-miterlimit="10" pointer-events="none"/>
        <path d="M 756 336 L 756 192 L 674.4 192" fill="none" stroke="#000000"
              stroke-width="2.4" stroke-miterlimit="10" pointer-events="none"/>
        <ellipse cx="672" cy="192" rx="2.4" ry="2.4" fill="#000000"
                 stroke="#000000" stroke-width="2.4" pointer-events="none"/>
    </g>
</svg>