
<svg xmlns="http://www.w3.org/2000/svg"
     xmlns:xlink="http://www.w3.org/1999/xlink" version="1.1" width="810"
     height="689">
    <defs>
        <linearGradient x1="0%" y1="0%" x2="0%" y2="100%"
                        id="mx-gradient-3cb879-1-3cb879-1-s-0">
            <stop offset="0%" style="stop-color:#3cb879"/>
            <stop offset="100%" style="stop-color:#3cb879"/>
        </linearGradient>
    </defs>
    <g transform=" scale(0.95) translate(-314.84375,-235)">
        <rect x="918" y="698" width="4" height="4" fill="#000000" stroke="none"
              transform="rotate(180,940,760)" pointer-events="none"/>
        <rect x="918" y="818" width="4" height="4" fill="#000000" stroke="none"
              transform="rotate(180,940,760)" pointer-events="none"/>
        <path d="M 904 744.51 C 948 744.51 936 744.51 936 744.51" fill="none"
              stroke="#000000" stroke-width="4" stroke-linecap="round"
              stroke-miterlimit="10" transform="rotate(180,940,760)"
              pointer-events="none"/>
        <path d="M 919.72 745.07 C 919.72 745.07 919.72 745.07 904 774.51 C 935.44 774.51 935.44 774.51 935.44 774.51 Z"
              fill="#000000" stroke="#000000" stroke-width="2.98"
              stroke-linejoin="round" stroke-linecap="round"
              stroke-miterlimit="10" transform="rotate(180,940,760)"
              pointer-events="none"/>
        <path d="M 920 702 L 920 818" fill="#000000" stroke="#000000"
              stroke-width="4" stroke-linecap="square" stroke-miterlimit="10"
              transform="rotate(180,940,760)" pointer-events="none"/>
        <path d="M 956.49 737.54 L 964.98 746.03 L 970.64 731.89 Z"
              fill="#000000" stroke="#000000" stroke-width="2"
              stroke-linejoin="round" stroke-linecap="square"
              stroke-miterlimit="10" transform="rotate(180,940,760)"
              pointer-events="none"/>
        <path d="M 948.01 754.45 L 964.98 737.48" fill="none" stroke="#000000"
              stroke-width="4" stroke-linejoin="round" stroke-linecap="round"
              stroke-miterlimit="10" transform="rotate(180,940,760)"
              pointer-events="none"/>
        <path d="M 953.14 715.43 L 961.62 723.91 L 967.28 709.77 Z"
              fill="#000000" stroke="#000000" stroke-width="2"
              stroke-linejoin="round" stroke-linecap="round"
              stroke-miterlimit="10" transform="rotate(180,940,760)"
              pointer-events="none"/>
        <path d="M 944.65 732.43 L 961.62 715.46" fill="none" stroke="#000000"
              stroke-width="4" stroke-linejoin="round" stroke-linecap="round"
              stroke-miterlimit="10" transform="rotate(180,940,760)"
              pointer-events="none"/>
        <rect x="980" y="794" width="28" height="28" fill-opacity="0"
              fill="#dae2f2" stroke="none" pointer-events="none"/>
        <g fill="#000000" font-family="Arial,Helvetica" font-weight="bold"
           text-anchor="middle" font-size="24px">
            <text x="994" y="816">
                L1
            </text>
        </g>
        <rect x="858" y="598" width="4" height="4" fill="#000000" stroke="none"
              transform="rotate(90,860,660)" pointer-events="none"/>
        <rect x="858" y="718" width="4" height="4" fill="#000000" stroke="none"
              transform="rotate(90,860,660)" pointer-events="none"/>
        <path d="M 860 602 L 860 622" fill="#000000" stroke="#000000"
              stroke-width="4" stroke-linecap="square" stroke-miterlimit="10"
              transform="rotate(90,860,660)" pointer-events="none"/>
        <path d="M 860 698 L 860 718" fill="#000000" stroke="#000000"
              stroke-width="4" stroke-linecap="square" stroke-miterlimit="10"
              transform="rotate(90,860,660)" pointer-events="none"/>
        <path d="M 846 624 C 872.79 623.64 874 624 874 624 L 874 696 L 846 696 Z"
              fill="#ffffff" stroke="#000000" stroke-width="4"
              stroke-linejoin="round" stroke-linecap="round"
              stroke-miterlimit="10" transform="rotate(90,860,660)"
              pointer-events="none"/>
        <rect x="800" y="600" width="32" height="28" fill-opacity="0"
              fill="#dae2f2" stroke="none" pointer-events="none"/>
        <g fill="#000000" font-family="Arial,Helvetica" font-weight="bold"
           text-anchor="middle" font-size="24px">
            <text x="816" y="622">
                R1
            </text>
        </g>
        <rect x="860" y="600" width="52" height="26" fill-opacity="0"
              fill="#dae2f2" stroke="none" pointer-events="none"/>
        <g fill="#000000" font-family="Arial,Helvetica" font-weight="bold"
           text-anchor="middle" font-size="24px">
            <text x="886" y="621">
                330R
            </text>
        </g>
        <path d="M 920 660 L 960 660 L 960 700" fill="none" stroke="#000000"
              stroke-width="4" stroke-miterlimit="10" pointer-events="none"/>
        <rect x="958" y="878" width="4" height="4" fill="#000000" stroke="none"
              pointer-events="none"/>
        <path d="M 938 922 C 982.04 922 982.04 922 982.04 922" fill="none"
              stroke="#000000" stroke-width="4" stroke-linecap="round"
              stroke-miterlimit="10" pointer-events="none"/>
        <path d="M 946 934 C 965.14 934 974 934 974 934" fill="none"
              stroke="#000000" stroke-width="4" stroke-linecap="round"
              stroke-miterlimit="10" pointer-events="none"/>
        <path d="M 954 946 C 960.24 946 966 946 966 946" fill="none"
              stroke="#000000" stroke-width="4" stroke-linecap="round"
              stroke-miterlimit="10" pointer-events="none"/>
        <path d="M 960 882 L 960 918" fill="#000000" stroke="#000000"
              stroke-width="4" stroke-linecap="square" stroke-miterlimit="10"
              pointer-events="none"/>
        <path d="M 960 820 L 960 880" fill="none" stroke="#000000"
              stroke-width="4" stroke-miterlimit="10" pointer-events="none"/>
        <rect x="320" y="280" width="240" height="620"
              fill="url(#mx-gradient-3cb879-1-3cb879-1-s-0)" stroke="#000000"
              stroke-width="2" pointer-events="none"/>
        <rect x="340" y="240" width="234" height="26" fill-opacity="0"
              fill="#dae2f2" stroke="none" pointer-events="none"/>
        <g fill="#000000" font-family="Arial,Helvetica" font-weight="bold"
           text-anchor="middle" font-size="24px">
            <text x="457" y="261">
                ATmega168PB-Xplained
            </text>
        </g>
        <rect x="598" y="858" width="4" height="4" fill="#000000" stroke="none"
              pointer-events="none"/>
        <path d="M 562 860 L 598 860" fill="#000000" stroke="#000000"
              stroke-width="4" stroke-linecap="square" stroke-miterlimit="10"
              pointer-events="none"/>
        <g fill="#000000" font-family="Arial,Helvetica" font-weight="bold"
           text-anchor="end" font-size="24px">
            <text x="555" y="867.5">
                GND
            </text>
        </g>
        <rect x="598" y="658" width="4" height="4" fill="#000000" stroke="none"
              pointer-events="none"/>
        <path d="M 562 660 L 598 660" fill="#000000" stroke="#000000"
              stroke-width="4" stroke-linecap="square" stroke-miterlimit="10"
              pointer-events="none"/>
        <g fill="#000000" font-family="Arial,Helvetica" font-weight="bold"
           text-anchor="end" font-size="24px">
            <text x="555" y="667.5">
                PD5 (OC0A)
            </text>
        </g>
        <rect x="598" y="518" width="4" height="4" fill="#000000" stroke="none"
              pointer-events="none"/>
        <path d="M 562 520 L 598 520" fill="#000000" stroke="#000000"
              stroke-width="4" stroke-linecap="square" stroke-miterlimit="10"
              pointer-events="none"/>
        <g fill="#000000" font-family="Arial,Helvetica" font-weight="bold"
           text-anchor="end" font-size="24px">
            <text x="555" y="527.5">
                PC0 (ADC0)
            </text>
        </g>
        <rect x="598" y="318" width="4" height="4" fill="#000000" stroke="none"
              pointer-events="none"/>
        <path d="M 562 320 L 598 320" fill="#000000" stroke="#000000"
              stroke-width="4" stroke-linecap="square" stroke-miterlimit="10"
              pointer-events="none"/>
        <g fill="#000000" font-family="Arial,Helvetica" font-weight="bold"
           text-anchor="end" font-size="24px">
            <text x="555" y="327.5">
                Vcc
            </text>
        </g>
        <rect x="638" y="878" width="4" height="4" fill="#000000" stroke="none"
              pointer-events="none"/>
        <path d="M 618 922 C 662.04 922 662.04 922 662.04 922" fill="none"
              stroke="#000000" stroke-width="4" stroke-linecap="round"
              stroke-miterlimit="10" pointer-events="none"/>
        <path d="M 626 934 C 645.14 934 654 934 654 934" fill="none"
              stroke="#000000" stroke-width="4" stroke-linecap="round"
              stroke-miterlimit="10" pointer-events="none"/>
        <path d="M 634 946 C 640.24 946 646 946 646 946" fill="none"
              stroke="#000000" stroke-width="4" stroke-linecap="round"
              stroke-miterlimit="10" pointer-events="none"/>
        <path d="M 640 882 L 640 918" fill="#000000" stroke="#000000"
              stroke-width="4" stroke-linecap="square" stroke-miterlimit="10"
              pointer-events="none"/>
        <path d="M 600 860 L 640 860 L 640 880" fill="none" stroke="#000000"
              stroke-width="4" stroke-miterlimit="10" pointer-events="none"/>
        <path d="M 600 660 L 800 660" fill="none" stroke="#000000"
              stroke-width="4" stroke-miterlimit="10" pointer-events="none"/>
        <rect x="1058" y="458" width="4" height="4" fill="#000000" stroke="none"
              transform="rotate(180,1080,520)" pointer-events="none"/>
        <rect x="1058" y="578" width="4" height="4" fill="#000000" stroke="none"
              transform="rotate(180,1080,520)" pointer-events="none"/>
        <rect x="1118" y="518" width="4" height="4" fill="#000000" stroke="none"
              transform="rotate(180,1080,520)" pointer-events="none"/>
        <path d="M 1060 484 L 1074 490 L 1060 496" fill="none" stroke="#000000"
              stroke-width="4" stroke-linejoin="round" stroke-linecap="round"
              stroke-miterlimit="10" transform="rotate(180,1080,520)"
              pointer-events="none"/>
        <path d="M 1060 496 L 1046 502 L 1060 508" fill="none" stroke="#000000"
              stroke-width="4" stroke-linejoin="round" stroke-linecap="round"
              stroke-miterlimit="10" transform="rotate(180,1080,520)"
              pointer-events="none"/>
        <path d="M 1060 508 L 1074 514 L 1060 520" fill="none" stroke="#000000"
              stroke-width="4" stroke-linejoin="round" stroke-linecap="round"
              stroke-miterlimit="10" transform="rotate(180,1080,520)"
              pointer-events="none"/>
        <path d="M 1060 520 L 1046 526 L 1060 532" fill="none" stroke="#000000"
              stroke-width="4" stroke-linejoin="round" stroke-linecap="round"
              stroke-miterlimit="10" transform="rotate(180,1080,520)"
              pointer-events="none"/>
        <path d="M 1060 532 L 1074 538 L 1060 544" fill="none" stroke="#000000"
              stroke-width="4" stroke-linejoin="round" stroke-linecap="round"
              stroke-miterlimit="10" transform="rotate(180,1080,520)"
              pointer-events="none"/>
        <path d="M 1060 544 L 1046 550 L 1060 556" fill="none" stroke="#000000"
              stroke-width="4" stroke-linejoin="round" stroke-linecap="round"
              stroke-miterlimit="10" transform="rotate(180,1080,520)"
              pointer-events="none"/>
        <path d="M 1060 462 L 1060 482" fill="#000000" stroke="#000000"
              stroke-width="4" stroke-linecap="square" stroke-miterlimit="10"
              transform="rotate(180,1080,520)" pointer-events="none"/>
        <path d="M 1060 558 L 1060 578" fill="#000000" stroke="#000000"
              stroke-width="4" stroke-linecap="square" stroke-miterlimit="10"
              transform="rotate(180,1080,520)" pointer-events="none"/>
        <path d="M 1090 520 L 1118 520" fill="#000000" stroke="#000000"
              stroke-width="4" stroke-linecap="square" stroke-miterlimit="10"
              transform="rotate(180,1080,520)" pointer-events="none"/>
        <path d="M 1093.55 525.37 C 1093.21 525.27 1088.9 524.04 1083.97 522.64 C 1079.04 521.23 1075.01 520.05 1075.01 520.02 C 1075.01 519.99 1079.06 518.86 1084 517.5 C 1088.94 516.14 1093.26 514.95 1093.6 514.86 L 1094.21 514.69 L 1094.19 520.12 L 1094.16 525.55 L 1093.55 525.37 Z"
              fill="#000000" stroke="#000000" stroke-width="1.8"
              stroke-linejoin="round" stroke-linecap="square"
              stroke-miterlimit="10" transform="rotate(180,1080,520)"
              pointer-events="none"/>
        <rect x="1120" y="480" width="32" height="28" fill-opacity="0"
              fill="#dae2f2" stroke="none" pointer-events="none"/>
        <g fill="#000000" font-family="Arial,Helvetica" font-weight="bold"
           text-anchor="middle" font-size="24px">
            <text x="1136" y="502">
                R2
            </text>
        </g>
        <rect x="1120" y="520" width="40" height="28" fill-opacity="0"
              fill="#dae2f2" stroke="none" pointer-events="none"/>
        <g fill="#000000" font-family="Arial,Helvetica" font-weight="bold"
           text-anchor="middle" font-size="24px">
            <text x="1140" y="542">
                50k
            </text>
        </g>
        <rect x="1098" y="878" width="4" height="4" fill="#000000" stroke="none"
              pointer-events="none"/>
        <path d="M 1078 922 C 1122.04 922 1122.04 922 1122.04 922" fill="none"
              stroke="#000000" stroke-width="4" stroke-linecap="round"
              stroke-miterlimit="10" pointer-events="none"/>
        <path d="M 1086 934 C 1105.14 934 1114 934 1114 934" fill="none"
              stroke="#000000" stroke-width="4" stroke-linecap="round"
              stroke-miterlimit="10" pointer-events="none"/>
        <path d="M 1094 946 C 1100.24 946 1106 946 1106 946" fill="none"
              stroke="#000000" stroke-width="4" stroke-linecap="round"
              stroke-miterlimit="10" pointer-events="none"/>
        <path d="M 1100 882 L 1100 918" fill="#000000" stroke="#000000"
              stroke-width="4" stroke-linecap="square" stroke-miterlimit="10"
              pointer-events="none"/>
        <path d="M 1100 880 L 1100 580" fill="none" stroke="#000000"
              stroke-width="4" stroke-miterlimit="10" pointer-events="none"/>
        <path d="M 600 320 L 1100 320 L 1100 460" fill="none" stroke="#000000"
              stroke-width="4" stroke-miterlimit="10" pointer-events="none"/>
        <path d="M 600 520 L 1040 520" fill="none" stroke="#000000"
              stroke-width="4" stroke-miterlimit="10" pointer-events="none"/>
    </g>
</svg>