
<svg xmlns="http://www.w3.org/2000/svg"
     xmlns:xlink="http://www.w3.org/1999/xlink" version="1.1" width="1278"
     height="730">
    <defs>
        <linearGradient x1="0%" y1="0%" x2="0%" y2="100%"
                        id="mx-gradient-3cb879-1-3cb879-1-s-0">
            <stop offset="0%" style="stop-color:#3cb879"/>
            <stop offset="100%" style="stop-color:#3cb879"/>
        </linearGradient>
    </defs>
    <g transform=" scale(0.95) translate(-602.1,-1058.890625)">
        <rect x="1744.2" y="1326.2" width="7.6" height="7.6" fill="#000000"
              stroke="none" transform="rotate(180,1786,1444)"
              pointer-events="none"/>
        <rect x="1744.2" y="1554.2" width="7.6" height="7.6" fill="#000000"
              stroke="none" transform="rotate(180,1786,1444)"
              pointer-events="none"/>
        <path d="M 1717.6 1414.57 C 1801.2 1414.57 1778.4 1414.57 1778.4 1414.57"
              fill="none" stroke="#000000" stroke-width="7.6"
              stroke-linecap="round" stroke-miterlimit="10"
              transform="rotate(180,1786,1444)" pointer-events="none"/>
        <path d="M 1747.47 1415.64 C 1747.47 1415.64 1747.47 1415.64 1717.6 1471.57 C 1777.34 1471.57 1777.34 1471.57 1777.34 1471.57 Z"
              fill="#000000" stroke="#000000" stroke-width="5.66"
              stroke-linejoin="round" stroke-linecap="round"
              stroke-miterlimit="10" transform="rotate(180,1786,1444)"
              pointer-events="none"/>
        <path d="M 1748 1333.8 L 1748 1554.2" fill="#000000" stroke="#000000"
              stroke-width="7.6" stroke-linecap="square" stroke-miterlimit="10"
              transform="rotate(180,1786,1444)" pointer-events="none"/>
        <path d="M 1817.34 1401.33 L 1833.46 1417.46 L 1844.21 1390.59 Z"
              fill="#000000" stroke="#000000" stroke-width="3.8"
              stroke-linejoin="round" stroke-linecap="square"
              stroke-miterlimit="10" transform="rotate(180,1786,1444)"
              pointer-events="none"/>
        <path d="M 1801.22 1433.46 L 1833.46 1401.21" fill="none"
              stroke="#000000" stroke-width="7.6" stroke-linejoin="round"
              stroke-linecap="round" stroke-miterlimit="10"
              transform="rotate(180,1786,1444)" pointer-events="none"/>
        <path d="M 1810.96 1359.31 L 1827.08 1375.43 L 1837.83 1348.56 Z"
              fill="#000000" stroke="#000000" stroke-width="3.8"
              stroke-linejoin="round" stroke-linecap="round"
              stroke-miterlimit="10" transform="rotate(180,1786,1444)"
              pointer-events="none"/>
        <path d="M 1794.84 1391.62 L 1827.08 1359.37" fill="none"
              stroke="#000000" stroke-width="7.6" stroke-linejoin="round"
              stroke-linecap="round" stroke-miterlimit="10"
              transform="rotate(180,1786,1444)" pointer-events="none"/>
        <rect x="1862" y="1508.6" width="53.2" height="53.2" fill-opacity="0"
              fill="#dae2f2" stroke="none" pointer-events="none"/>
        <g fill="#000000" font-family="Arial,Helvetica" font-weight="bold"
           text-anchor="middle" font-size="45.599999999999994px">
            <text x="1888.6" y="1550.4">
                L1
            </text>
        </g>
        <rect x="1630.2" y="1136.2" width="7.6" height="7.6" fill="#000000"
              stroke="none" transform="rotate(90,1634,1254)"
              pointer-events="none"/>
        <rect x="1630.2" y="1364.2" width="7.6" height="7.6" fill="#000000"
              stroke="none" transform="rotate(90,1634,1254)"
              pointer-events="none"/>
        <path d="M 1634 1143.8 L 1634 1181.8" fill="#000000" stroke="#000000"
              stroke-width="7.6" stroke-linecap="square" stroke-miterlimit="10"
              transform="rotate(90,1634,1254)" pointer-events="none"/>
        <path d="M 1634 1326.2 L 1634 1364.2" fill="#000000" stroke="#000000"
              stroke-width="7.6" stroke-linecap="square" stroke-miterlimit="10"
              transform="rotate(90,1634,1254)" pointer-events="none"/>
        <path d="M 1607.4 1185.6 C 1658.29 1184.92 1660.6 1185.6 1660.6 1185.6 L 1660.6 1322.4 L 1607.4 1322.4 Z"
              fill="#ffffff" stroke="#000000" stroke-width="7.6"
              stroke-linejoin="round" stroke-linecap="round"
              stroke-miterlimit="10" transform="rotate(90,1634,1254)"
              pointer-events="none"/>
        <rect x="1694.8" y="1166.6" width="60.8" height="53.2" fill-opacity="0"
              fill="#dae2f2" stroke="none" pointer-events="none"/>
        <g fill="#000000" font-family="Arial,Helvetica" font-weight="bold"
           text-anchor="middle" font-size="45.599999999999994px">
            <text x="1725.2" y="1208.4">
                R1
            </text>
        </g>
        <rect x="1649.2" y="1117.2" width="98.8" height="49.4" fill-opacity="0"
              fill="#dae2f2" stroke="none" pointer-events="none"/>
        <g fill="#000000" font-family="Arial,Helvetica" font-weight="bold"
           text-anchor="middle" font-size="45.599999999999994px">
            <text x="1698.6" y="1157.1">
                330R
            </text>
        </g>
        <path d="M 1748 1254 L 1824 1254 L 1824 1330" fill="none"
              stroke="#000000" stroke-width="7.6" stroke-miterlimit="10"
              pointer-events="none"/>
        <rect x="1820.2" y="1668.2" width="7.6" height="7.6" fill="#000000"
              stroke="none" pointer-events="none"/>
        <path d="M 1782.2 1751.8 C 1865.88 1751.8 1865.88 1751.8 1865.88 1751.8"
              fill="none" stroke="#000000" stroke-width="7.6"
              stroke-linecap="round" stroke-miterlimit="10"
              pointer-events="none"/>
        <path d="M 1797.4 1774.6 C 1833.77 1774.6 1850.6 1774.6 1850.6 1774.6"
              fill="none" stroke="#000000" stroke-width="7.6"
              stroke-linecap="round" stroke-miterlimit="10"
              pointer-events="none"/>
        <path d="M 1812.6 1797.4 C 1824.46 1797.4 1835.4 1797.4 1835.4 1797.4"
              fill="none" stroke="#000000" stroke-width="7.6"
              stroke-linecap="round" stroke-miterlimit="10"
              pointer-events="none"/>
        <path d="M 1824 1675.8 L 1824 1744.2" fill="#000000" stroke="#000000"
              stroke-width="7.6" stroke-linecap="square" stroke-miterlimit="10"
              pointer-events="none"/>
        <path d="M 1824 1558 L 1824 1672" fill="none" stroke="#000000"
              stroke-width="7.6" stroke-miterlimit="10" pointer-events="none"/>
        <rect x="608" y="1140" width="456" height="570"
              fill="url(#mx-gradient-3cb879-1-3cb879-1-s-0)" stroke="#000000"
              stroke-width="3.8" pointer-events="none"/>
        <rect x="646" y="1064" width="444.6" height="49.4" fill-opacity="0"
              fill="#dae2f2" stroke="none" pointer-events="none"/>
        <g fill="#000000" font-family="Arial,Helvetica" font-weight="bold"
           text-anchor="middle" font-size="45.599999999999994px">
            <text x="868.3" y="1103.9">
                ATmega168PB-Xplained
            </text>
        </g>
        <rect x="1136.2" y="1630.2" width="7.6" height="7.6" fill="#000000"
              stroke="none" pointer-events="none"/>
        <path d="M 1067.8 1634 L 1136.2 1634" fill="#000000" stroke="#000000"
              stroke-width="7.6" stroke-linecap="square" stroke-miterlimit="10"
              pointer-events="none"/>
        <g fill="#000000" font-family="Arial,Helvetica" font-weight="bold"
           text-anchor="end" font-size="45.599999999999994px">
            <text x="1055.4" y="1648.7">
                GND
            </text>
        </g>
        <rect x="1136.2" y="1250.2" width="7.6" height="7.6" fill="#000000"
              stroke="none" pointer-events="none"/>
        <path d="M 1067.8 1254 L 1136.2 1254" fill="#000000" stroke="#000000"
              stroke-width="7.6" stroke-linecap="square" stroke-miterlimit="10"
              pointer-events="none"/>
        <g fill="#000000" font-family="Arial,Helvetica" font-weight="bold"
           text-anchor="end" font-size="45.599999999999994px">
            <text x="1055.4" y="1268.7">
                PD5
            </text>
        </g>
        <rect x="1212.2" y="1668.2" width="7.6" height="7.6" fill="#000000"
              stroke="none" pointer-events="none"/>
        <path d="M 1174.2 1751.8 C 1257.88 1751.8 1257.88 1751.8 1257.88 1751.8"
              fill="none" stroke="#000000" stroke-width="7.6"
              stroke-linecap="round" stroke-miterlimit="10"
              pointer-events="none"/>
        <path d="M 1189.4 1774.6 C 1225.77 1774.6 1242.6 1774.6 1242.6 1774.6"
              fill="none" stroke="#000000" stroke-width="7.6"
              stroke-linecap="round" stroke-miterlimit="10"
              pointer-events="none"/>
        <path d="M 1204.6 1797.4 C 1216.46 1797.4 1227.4 1797.4 1227.4 1797.4"
              fill="none" stroke="#000000" stroke-width="7.6"
              stroke-linecap="round" stroke-miterlimit="10"
              pointer-events="none"/>
        <path d="M 1216 1675.8 L 1216 1744.2" fill="#000000" stroke="#000000"
              stroke-width="7.6" stroke-linecap="square" stroke-miterlimit="10"
              pointer-events="none"/>
        <path d="M 1140 1634 L 1216 1634 L 1216 1672" fill="none"
              stroke="#000000" stroke-width="7.6" stroke-miterlimit="10"
              pointer-events="none"/>
        <path d="M 1140 1254 L 1520 1254" fill="none" stroke="#000000"
              stroke-width="7.6" stroke-miterlimit="10" pointer-events="none"/>
    </g>
</svg>