<svg xmlns="http://www.w3.org/2000/svg" xmlns:xlink="http://www.w3.org/1999/xlink" version="1.1" id="Layer_1" x="0px" y="0px" viewBox="0 0 47 38" xml:space="preserve" class="style0"><style>.style0{enable-background:	new 0 0 47 38;}</style><style type="text/css">.st0{fill:#ff1717;}</style><path class="st0" d="M3 2.9c-2 2-3 4.4-3 7.2s0.9 5.1 2.5 6.7s4 2.5 6.8 2.5c0.5 0 1-0.1 1.4-0.2c0.5-0.1 0.9-0.3 1.2-0.4 c0.5-0.1 0.9-0.3 1.2-0.4c0.3 0.1 0.4 0.4 0.6 0.8c0.3 0.5 0.4 1.2 0.4 2c0 2.3-0.6 4.3-1.8 6.1c-1.2 1.7-2.4 3.1-3.8 4.3 C6.8 33 5 34.2 2.8 35.1l1.9 2.9c3.1-1.1 5.9-2.7 8.1-5c2-2 3.8-4.7 5.5-8c1.7-3.4 2.4-7.7 2.4-13c0-3.7-1-6.6-3-8.8 c-2-2.2-4.5-3.3-7.3-3.3C7.4 0 5 1 3 2.9z M29.3 2.9c-2 2-3 4.4-3 7.2s0.9 5.1 2.5 6.7s4 2.5 6.8 2.5c0.5 0 1-0.1 1.4-0.2 c0.5-0.1 0.9-0.3 1.2-0.4c0.5-0.1 0.9-0.3 1.2-0.4c0.3 0.1 0.5 0.4 0.6 0.8c0.3 0.5 0.4 1.2 0.4 2c0 2.3-0.6 4.3-1.8 6.1 c-1.2 1.7-2.4 3.1-3.8 4.3c-1.7 1.4-3.5 2.5-5.7 3.5l1.9 2.9c3.1-1.1 5.9-2.7 8.1-5c2-2 3.8-4.7 5.5-8c1.7-3.4 2.4-7.7 2.4-13 c0-3.7-1-6.6-3-8.8c-2-2.1-4.4-3.2-7.3-3.2C33.7 0 31.2 1 29.3 2.9z"/></svg>